<?xml version="1.0" standalone="no"?>
<!DOCTYPE svg PUBLIC "-//W3C//DTD SVG 20010904//EN"
 "http://www.w3.org/TR/2001/REC-SVG-20010904/DTD/svg10.dtd">
<svg version="1.0" xmlns="http://www.w3.org/2000/svg"
 width="721.000000pt" height="188.000000pt" viewBox="0 0 721.000000 188.000000"
 preserveAspectRatio="xMidYMid meet">

<g transform="translate(0.000000,188.000000) scale(0.100000,-0.100000)"
fill="#000000" stroke="none">
<path d="M2166 1499 c-128 -31 -219 -168 -202 -302 15 -116 65 -175 224 -265
60 -34 116 -70 125 -80 29 -32 31 -73 5 -112 -46 -69 -123 -77 -172 -19 -21
25 -26 41 -26 85 l0 54 -80 0 -80 0 0 -48 c0 -109 63 -217 152 -263 171 -87
378 47 378 245 0 113 -55 183 -214 269 -128 70 -156 100 -156 167 0 86 75 141
150 110 45 -19 61 -53 67 -141 l6 -79 75 0 74 0 -4 98 c-3 84 -7 104 -30 143
-65 110 -181 165 -292 138z"/>
<path d="M4675 1504 c-63 -16 -93 -31 -133 -67 -69 -64 -87 -107 -87 -207 0
-75 3 -91 29 -137 38 -69 52 -80 186 -158 63 -36 123 -75 133 -87 43 -51 3
-150 -68 -164 -74 -13 -135 48 -135 135 l0 41 -75 0 -75 0 0 -62 c0 -106 64
-208 158 -254 54 -27 164 -25 218 3 154 82 201 284 94 405 -20 24 -73 63 -116
87 -152 85 -171 100 -188 142 -20 50 -20 63 1 106 33 71 127 82 177 22 23 -27
26 -39 26 -110 l0 -79 81 0 82 0 -5 93 c-3 61 -11 106 -24 132 -23 50 -94 122
-137 140 -38 15 -114 25 -142 19z"/>
<path d="M5922 1495 c-59 -18 -122 -73 -157 -136 l-30 -54 -3 -260 c-4 -303 1
-342 59 -414 103 -132 269 -147 384 -35 83 80 85 89 85 410 0 328 -4 347 -81
424 -73 73 -161 95 -257 65z m122 -159 c62 -26 68 -54 64 -336 l-3 -249 -29
-30 c-37 -38 -83 -48 -125 -27 -58 30 -61 48 -61 328 0 280 1 286 64 314 40
17 49 17 90 0z"/>
<path d="M757 1433 c-126 -210 -540 -939 -541 -952 -1 -15 72 -16 833 -19 527
-1 838 1 845 8 6 6 -31 80 -105 207 -381 663 -468 808 -483 808 -11 0 -56 -68
-129 -194 -61 -107 -116 -195 -122 -195 -5 -1 -60 87 -122 194 -62 107 -119
196 -127 198 -8 2 -28 -21 -49 -55z m167 -212 c58 -100 104 -186 103 -190 -2
-3 -70 -122 -152 -263 l-148 -258 -223 0 c-123 0 -224 2 -224 6 0 5 475 831
507 883 8 13 19 19 23 15 5 -5 56 -92 114 -193z m650 -254 c136 -236 250 -435
253 -443 4 -12 -30 -14 -219 -14 l-225 0 -148 258 c-82 141 -150 260 -152 264
-2 4 10 29 25 55 16 26 67 113 112 191 67 117 85 141 95 130 7 -7 124 -206
259 -441z m-379 -213 c72 -124 132 -230 133 -235 2 -5 -113 -9 -273 -9 -152 0
-275 4 -273 8 15 40 265 461 273 462 6 0 69 -102 140 -226z"/>
<path d="M2602 1013 l3 -478 73 -3 72 -3 0 246 c0 135 3 245 8 245 4 -1 59
-111 122 -245 l115 -245 58 0 57 0 0 480 0 480 -70 0 -70 0 0 -258 c0 -142 -3
-262 -6 -265 -4 -4 -40 71 -81 166 -41 95 -92 214 -115 265 l-40 92 -64 0 -64
0 2 -477z"/>
<path d="M3366 1463 c-10 -49 -166 -918 -166 -925 0 -5 34 -8 75 -8 l74 0 6
37 c13 77 6 73 115 73 l98 0 9 -53 8 -52 78 -3 c42 -2 77 -2 77 0 -1 2 -38
217 -83 478 l-83 475 -101 3 -101 3 -6 -28z m114 -256 c0 -6 50 -353 55 -384
l6 -33 -72 0 -72 0 6 38 c36 243 61 382 68 382 5 0 9 -1 9 -3z"/>
<path d="M3840 1010 l0 -480 75 0 75 0 2 177 3 178 90 6 c108 7 154 28 213 94
51 58 73 122 73 212 1 143 -44 224 -151 272 -39 18 -66 21 -212 21 l-168 0 0
-480z m349 285 c26 -30 31 -44 31 -86 0 -111 -51 -161 -160 -157 l-65 3 -3
138 -3 137 85 0 c84 0 84 0 115 -35z"/>
<path d="M5090 1010 l0 -480 75 0 75 0 2 208 3 207 107 3 108 3 2 -208 3 -208
78 -3 77 -3 0 481 0 480 -80 0 -80 0 0 -190 0 -191 -107 3 -108 3 -3 188 -2
187 -75 0 -75 0 0 -480z"/>
<path d="M6380 1010 l0 -481 78 3 77 3 3 178 2 177 73 0 c133 0 221 51 274
158 25 51 28 68 28 157 0 86 -3 106 -24 145 -31 59 -57 87 -106 113 -36 20
-59 22 -222 25 l-183 4 0 -482z m343 299 c58 -45 56 -168 -4 -225 -26 -25 -39
-29 -104 -32 l-75 -4 0 141 0 141 79 0 c64 0 83 -4 104 -21z"/>
</g>
</svg>
